HIERARCHY
ROOT hip
{
	OFFSET 0.000000 0.000000 0.000000
	CHANNELS 6 Xposition Yposition Zposition Xrotation Zrotation Yrotation 
	JOINT abdomen
	{
		OFFSET 0.000000 3.422050 0.000000
		CHANNELS 3 Xrotation Zrotation Yrotation 
		JOINT chest
		{
			OFFSET 0.000000 8.486693 -0.684411
			CHANNELS 3 Xrotation Zrotation Yrotation 
			JOINT neck
			{
				OFFSET 0.000000 10.266162 -0.273764
				CHANNELS 3 Xrotation Zrotation Yrotation 
				JOINT head
				{
					OFFSET 0.000000 3.148285 0.000000
					CHANNELS 3 Xrotation Zrotation Yrotation 
					End Site
					{
						OFFSET 0.000000 3.148289 0.000000
					}
				}
			}
			JOINT lCollar
			{
				OFFSET 3.422053 6.707223 -0.821293
				CHANNELS 3 Yrotation Zrotation Xrotation 
				JOINT lShldr
				{
					OFFSET 3.285171 0.000000 0.000000
					CHANNELS 3 Zrotation Yrotation Xrotation 
					JOINT lForeArm
					{
						OFFSET 10.129278 0.000000 0.000000
						CHANNELS 3 Yrotation Zrotation Xrotation 
						JOINT lHand
						{
							OFFSET 8.486692 0.000000 0.000000
							CHANNELS 3 Zrotation Yrotation Xrotation 
							End Site
							{
								OFFSET 4.106464 0.000000 0.000000
							}
						}
					}
				}
			}
			JOINT rCollar
			{
				OFFSET -3.558935 6.707223 -0.821293
				CHANNELS 3 Yrotation Zrotation Xrotation 
				JOINT rShldr
				{
					OFFSET -3.148289 0.000000 0.000000
					CHANNELS 3 Zrotation Yrotation Xrotation 
					JOINT rForeArm
					{
						OFFSET -10.266159 0.000000 0.000000
						CHANNELS 3 Yrotation Zrotation Xrotation 
						JOINT rHand
						{
							OFFSET -8.349810 0.000000 0.000000
							CHANNELS 3 Zrotation Yrotation Xrotation 
							End Site
							{
								OFFSET -4.106464 0.000000 0.000000
							}
						}
					}
				}
			}
		}
	}
	JOINT lThigh
	{
		OFFSET 5.338403 -1.642589 1.368821
		CHANNELS 3 Xrotation Zrotation Yrotation 
		JOINT lShin
		{
			OFFSET -2.053232 -20.121670 0.000000
			CHANNELS 3 Xrotation Zrotation Yrotation 
			JOINT lFoot
			{
				OFFSET 0.000000 -19.300380 -1.231939
				CHANNELS 3 Xrotation Yrotation Zrotation 
				End Site
				{
					OFFSET 0.000000 -2.463878 4.653993
				}
			}
		}
	}
	JOINT rThigh
	{
		OFFSET -5.338403 -1.642589 1.368821
		CHANNELS 3 Xrotation Zrotation Yrotation 
		JOINT rShin
		{
			OFFSET 2.053232 -20.121670 0.000000
			CHANNELS 3 Xrotation Zrotation Yrotation 
			JOINT rFoot
			{
				OFFSET 0.000000 -19.300380 -1.231939
				CHANNELS 3 Xrotation Yrotation Zrotation 
				End Site
				{
					OFFSET 0.000000 -2.463878 4.653993
				}
			}
		}
	}
}
MOTION
Frames: 6
Frame Time: 0.033264
-0.309380 40.185352 2.021663 2.176567 0.000000 0.000000 7.514987 -0.928989 -0.343148 -1.144804 -2.187794 -1.084113 2.422488 14.870982 -0.730479 -4.966422 7.277679 8.483380 -4.309133 3.785781 6.481656 -52.619404 -14.314293 -1.128901 -75.452148 -32.694569 -9.027159 -8.364533 7.126315 0.075754 4.214054 -4.135269 6.008966 52.608250 14.444872 -1.179935 74.712357 32.515636 -8.668794 9.621557 -6.781483 0.327928 -23.690218 15.904400 16.451317 50.639141 3.048595 -0.281463 -23.096096 -1.509310 -16.770182 -23.976774 -14.009534 -15.463021 50.880257 -3.296325 0.200112 -23.456650 -0.265524 15.923949 
-0.309380 40.185352 1.970750 2.854639 0.000000 0.000000 7.514987 -0.928989 -0.343148 -2.440880 -2.187833 -1.084086 2.771288 15.007022 -0.691195 -4.718359 7.325912 8.576916 -4.165588 3.670613 6.995543 -52.619404 -14.314293 -1.128901 -75.743698 -32.751247 -9.178804 -8.370716 7.257989 0.237763 4.067706 -4.028737 6.507875 52.608250 14.444872 -1.179935 74.992455 32.573181 -8.813668 9.652369 -6.911262 0.491959 -24.633713 15.691315 15.976091 50.639141 3.048595 -0.281463 -23.017035 -1.033698 -16.750114 -24.897293 -13.835616 -15.082919 50.880257 -3.296325 0.200112 -23.381933 -0.649068 15.903711 
-0.309380 40.185352 1.919837 3.532614 0.000000 0.000000 7.514987 -0.928989 -0.343148 -3.736289 -2.187871 -1.084059 3.120069 15.142697 -0.651067 -4.470308 7.373721 8.670625 -4.021046 3.556746 7.509607 -52.619404 -14.314293 -1.128901 -76.035576 -32.807281 -9.330881 -8.376525 7.389678 0.399803 3.920465 -3.923490 7.006944 52.608250 14.444872 -1.179935 75.272888 32.630127 -8.958965 9.682816 -7.041126 0.655963 -25.574080 15.470804 15.505204 50.639141 3.048595 -0.281463 -22.938158 -0.558086 -16.730705 -25.815666 -13.655849 -14.706130 50.880257 -3.296325 0.200112 -23.307352 -1.032624 15.883974 
-0.309380 40.185352 1.868924 4.210448 0.000000 0.000000 7.514987 -0.928989 -0.343148 -5.030708 -2.187909 -1.084031 3.468828 15.278000 -0.610100 -4.222275 7.421105 8.764508 -3.875525 3.444193 8.023823 -52.619404 -14.314293 -1.128901 -76.327858 -32.862667 -9.483396 -8.381955 7.521378 0.561876 3.772348 -3.819541 7.506156 52.608250 14.444872 -1.179935 75.553635 32.686459 -9.104674 9.712895 -7.171074 0.819940 -26.511141 15.242988 15.038832 50.639141 3.048595 -0.281463 -22.859438 -0.082490 -16.711946 -26.731749 -13.470320 -14.332788 50.880257 -3.296325 0.200112 -23.232889 -1.416184 15.864737 
-0.309380 40.185352 1.818011 4.888092 0.000000 0.000000 7.514987 -0.928989 -0.343148 -6.323802 -2.187945 -1.084001 3.817564 15.412925 -0.568294 -3.974259 7.468060 8.858560 -3.729042 3.332970 8.538167 -52.619404 -14.314293 -1.128901 -76.620453 -32.917393 -9.636330 -8.387014 7.653090 0.723982 3.623375 -3.716902 8.005488 52.608250 14.444872 -1.179935 75.834740 32.742195 -9.250804 9.742609 -7.301106 0.983893 -27.444700 15.007992 14.577144 50.639141 3.048595 -0.281463 -22.780893 0.393074 -16.693851 -27.645380 -13.279120 -13.963024 50.880257 -3.296325 0.200112 -23.158548 -1.799736 15.845989 
-0.309380 40.185352 1.767098 5.565498 0.000000 0.000000 7.514987 -0.928989 -0.343148 -7.615245 -2.187981 -1.083971 4.166270 15.547462 -0.525654 -3.726264 7.514590 8.952780 -3.581615 3.223090 9.052616 -52.619404 -14.314293 -1.128901 -76.913399 -32.971462 -9.789686 -8.391703 7.784817 0.886122 3.473560 -3.615584 8.504915 52.608250 14.444872 -1.179935 76.116165 32.797314 -9.397336 9.771954 -7.431215 1.147820 -28.374594 14.765949 14.120304 50.639141 3.048595 -0.281463 -22.702503 0.868586 -16.676405 -28.556398 -13.082340 -13.596964 50.880257 -3.296325 0.200112 -23.084330 -2.183273 15.827746 
